<?xml version="1.0" encoding="UTF-8" standalone="no"?>
<!-- Created with Inkscape (http://www.inkscape.org/) -->

<svg
   width="43.924438mm"
   height="31.589691mm"
   viewBox="0 0 43.924438 31.589692"
   version="1.1"
   id="svg1"
   xml:space="preserve"
   xmlns="http://www.w3.org/2000/svg"
   xmlns:svg="http://www.w3.org/2000/svg"><defs
   id="defs1" />&#10;       <g
   id="layer11"
   transform="translate(-111.41352,-153.35917)"><path
     style="fill:none;stroke:#000000;stroke-width:1.32292;stroke-linecap:butt;stroke-linejoin:miter;stroke-dasharray:none;stroke-opacity:1"
     d="m 154.6765,167.83575 v 7.68062 h -42.14441 c 0,0 -1.50684,-1.50069 0.93331,-2.17093 2.44015,-0.67024 11.67586,-3.12854 11.67586,-3.12854 h 17.74303 z"
     id="path869" /><path
     style="fill:none;stroke:#000000;stroke-width:1.32292;stroke-linecap:butt;stroke-linejoin:miter;stroke-dasharray:none;stroke-opacity:1"
     d="m 133.79223,160.37021 -3.00628,5.74787 3.57921,1.99472 h 9.1304 l 0.3129,-0.54197 5.8247,-1.20995 v -5.42257 z"
     id="path904" /><path
     style="fill:none;stroke:#000000;stroke-width:1.32292;stroke-linecap:butt;stroke-linejoin:miter;stroke-dasharray:none;stroke-opacity:1"
     d="m 115.12251,154.25488 -0.65626,1.55096 15.40364,8.07977 1.02052,-2.08325 z"
     id="path906" /><circle
     style="fill:none;stroke:#000000;stroke-width:1.32292;stroke-dasharray:none;stroke-opacity:1"
     id="path1749"
     cx="117.16858"
     cy="178.32446"
     r="1.6306365" /><circle
     style="fill:none;stroke:#000000;stroke-width:1.32292;stroke-dasharray:none;stroke-opacity:1"
     id="path1749-6"
     cx="151.13347"
     cy="178.41498"
     r="1.6306365" /><circle
     style="fill:none;stroke:#000000;stroke-width:1.32292;stroke-dasharray:none;stroke-opacity:1"
     id="path1751-3"
     cx="123.31337"
     cy="179.54106"
     r="2.8159063" /><circle
     style="fill:none;stroke:#000000;stroke-width:1.32292;stroke-dasharray:none;stroke-opacity:1"
     id="path1751-6"
     cx="130.31232"
     cy="179.5872"
     r="2.8159063" /><circle
     style="fill:none;stroke:#000000;stroke-width:1.32292;stroke-dasharray:none;stroke-opacity:1"
     id="path1751-7"
     cx="137.61948"
     cy="179.79909"
     r="2.8159063" /><circle
     style="fill:none;stroke:#000000;stroke-width:1.32292;stroke-dasharray:none;stroke-opacity:1"
     id="path1751-5"
     cx="144.94873"
     cy="179.74359"
     r="2.8159063" /><path
     style="fill:none;stroke:#000000;stroke-width:1.31885;stroke-linecap:round;stroke-linejoin:bevel;stroke-dasharray:none;stroke-opacity:1"
     d="m 113.95534,177.63552 c -0.16307,1.64379 -0.0643,2.58946 1.01697,3.48116 1.08131,0.89168 5.89134,2.79917 5.89134,2.79917 l 27.00953,0.37365 c 0,0 4.2711,-1.3844 5.42566,-2.39655 1.15454,-1.01216 1.19041,-1.10307 1.22941,-2.20071 0.0391,-1.09763 0.0315,-2.09554 0.0315,-2.09554"
     id="path79" /></g></svg>
