<?xml version="1.0" encoding="UTF-8" standalone="no"?>
<!-- Created with Inkscape (http://www.inkscape.org/) -->

<svg
   width="42.856804mm"
   height="38.052605mm"
   viewBox="0 0 42.856803 38.052605"
   version="1.1"
   id="svg1"
   xml:space="preserve"
   xmlns="http://www.w3.org/2000/svg"
   xmlns:svg="http://www.w3.org/2000/svg"><defs
   id="defs1" />&#10;       <g
   id="layer10"
   transform="translate(-59.976605,-150.51226)"><path
     style="fill:none;stroke:#000000;stroke-width:1.32292;stroke-linecap:butt;stroke-linejoin:miter;stroke-dasharray:none;stroke-opacity:1"
     d="m 68.941579,153.68895 c 2.303091,-0.712 4.373855,0.009 6.304916,1.5883 l -1.364486,-0.0532 c 1.859508,0.86865 2.992163,2.38315 3.942218,4.05989 l -1.278055,-0.4979 c 1.343794,1.8616 2.159231,3.82562 1.925307,5.99307 0.298588,1.29303 4.959204,1.13036 6.716703,1.68299 1.811876,0.56974 2.831826,1.8584 2.817643,1.89293 0.07179,-0.2636 3.904495,0.47479 5.100796,2.53736 1.02405,1.76558 2.56422,1.73358 4.67573,2.09237 -2.53858,0.89414 -3.65598,1.0844 -3.65598,1.0844 -0.24384,0.60723 2.93211,2.36217 6.362519,3.08566 -3.826809,1.45098 -6.408379,1.66889 -8.31939,-0.11858 -1.910978,-1.78734 -0.996002,-5.17101 -1.808533,-5.97543 -0.81256,-0.80442 -1.307669,-0.27493 -1.307669,-0.27493 0,0 0.330121,1.71068 -0.261273,2.83656 -0.591248,1.12588 -3.477275,3.64601 -3.477275,3.64601 -0.154322,-0.0727 -0.685935,1.47609 -0.489065,2.22689 0.194719,0.74246 1.0026,1.87178 0.689625,2.71029 -0.312974,0.83851 -2.042603,1.2528 -2.042603,1.2528 0,0 -2.569565,1.50146 -2.914915,2.80599 -0.07469,0.28219 -1.35757,0.28394 -1.35757,0.28394 0,0 -0.440356,1.31726 -1.030006,1.35097 -0.58965,0.0337 -1.899121,-0.19821 -1.865321,-0.56166 0.03371,-0.3636 0.754597,-1.17584 0.754597,-1.17584 0,0 -0.85119,-0.19957 -0.828957,-0.48671 0.02325,-0.28714 0.07411,-0.75919 0.621243,-0.95957 0.547189,-0.20053 1.738944,-0.42375 2.524796,-0.23374 0.627547,-1.05154 2.699039,-1.51123 2.880767,-2.39534 0.181641,-0.88411 -1.792503,-5.16423 -2.048038,-5.36927 -0.0768,-0.0616 -0.33398,-0.16074 -0.33398,-0.16074 0.344827,-0.69311 0.113511,-1.32538 -0.133811,-1.97138 0,0 -1.867036,0.18949 -2.566775,0.40978 -1.376199,0.43321 -6.313825,-3.18007 -6.313825,-3.18007 l -1.687734,0.67133 c 0,0 -1.500484,-0.0334 -2.094348,-0.37457 -0.593894,-0.34131 -0.7146,-0.40597 -0.7146,-0.40597 0,0 -0.224043,0.5038 -0.523359,1.18869 -0.299315,0.68486 -0.27771,1.62337 -0.01309,2.30494 1.453185,0.0692 0.663523,3.29151 0.174836,3.50992 -0.488657,0.21855 -0.92323,-0.7973 -1.245824,-1.86492 -0.322594,-1.06758 -0.782408,-0.84231 -0.771975,-1.82242 0.01162,-0.9801 0.104865,-1.44254 0.274009,-2.09884 0.169144,-0.65629 0.553513,-1.87977 0.553513,-1.87977 0,0 -1.72094,-0.19096 -1.957683,0.84043 -0.23686,1.03137 -0.727215,3.17291 -0.727215,3.17291 -0.02325,0.0116 0.356597,0.39489 0.397343,1.60552 0.03371,1.00007 -0.345128,1.92864 -0.787925,1.74488 -0.677506,-0.28103 -0.987004,-2.49816 -0.987004,-2.49816 0,0 -0.238588,-1.17994 -0.01437,-2.39839 0.224362,-1.21847 0.50542,-1.73033 0.562499,-2.30792 0.05812,-0.5873 0.42463,-2.12899 1.785023,-2.28771 0.84883,-0.0991 1.590128,0.21361 2.632079,0.21361 1.041921,0 2.223895,-0.18861 2.223895,-0.18861 0,0 -0.03952,-2.80259 0.613859,-3.64898 0.701715,-0.90908 1.268784,-2.59226 1.509131,-3.76961 0.272316,-1.33307 -0.774924,-2.76958 -0.941365,-2.63127 0,0 -0.57881,0.7724 -1.167035,1.10176 -0.588255,0.3294 -1.593297,0.65667 -1.593297,0.65667 0,0 -0.112472,1.12373 -0.876875,1.12373 -0.764403,0 -1.833788,-0.76661 -1.500412,-1.71457 0.333377,-0.94793 0.700931,-1.23394 0.700931,-1.23394 0.517313,-1.41854 0.969526,-2.91024 1.828295,-3.94512 0,0 0.221457,-0.52947 0.171179,-1.04149 -0.05028,-0.51199 -0.203729,-1.26547 -0.203729,-1.26547 l 0.662307,0.35695 -0.07149,-0.85598 z"
     id="path81" /></g></svg>
