<?xml version="1.0" encoding="UTF-8" standalone="no"?>
<!-- Created with Inkscape (http://www.inkscape.org/) -->

<svg
   width="37.149952mm"
   height="41.188541mm"
   viewBox="0 0 37.149952 41.188542"
   version="1.1"
   id="svg1"
   xml:space="preserve"
   xmlns="http://www.w3.org/2000/svg"
   xmlns:svg="http://www.w3.org/2000/svg"><defs
   id="defs1" />&#10;       <g
   id="layer4"
   transform="translate(-4.7533879,-72.537686)"><path
     style="fill:none;stroke:#000000;stroke-width:1.32292;stroke-linecap:butt;stroke-linejoin:miter;stroke-dasharray:none;stroke-opacity:1"
     d="M 6.2030405,78.750953 10.801919,73.600092 23.59429,86.916789 35.58746,73.49887 40.716591,78.604109 27.882518,91.20502 40.967003,102.97969 35.962189,108.49183 23.59429,95.493252 10.904824,108.34929 5.7276547,103.43666 19.306056,91.20502 Z"
     id="path70" /><path
     style="fill:none;stroke:#000000;stroke-width:1.32292;stroke-linecap:butt;stroke-linejoin:miter;stroke-dasharray:none;stroke-opacity:1"
     d="m 23.545417,98.357999 7.621907,8.364911 0.01577,4.80932 0.915053,0.0304 -0.04002,1.4386 -18.171613,0.061 0.154637,-1.17185 0.677646,-0.0338 0.174078,-4.74042 z"
     id="path71" /><path
     style="fill:none;stroke:#000000;stroke-width:1.32292;stroke-linecap:butt;stroke-linejoin:miter;stroke-dasharray:none;stroke-opacity:1"
     d="m 30.343051,91.10354 3.642316,3.664415 2.819012,-0.496973 -4.91224,-4.638477 z"
     id="path72" /><path
     style="fill:none;stroke:#000000;stroke-width:1.32292;stroke-linecap:butt;stroke-linejoin:miter;stroke-dasharray:none;stroke-opacity:1"
     d="m 16.90749,91.13345 -4.377193,3.655376 -3.3646778,0.1502 6.5873478,-5.002649 z"
     id="path72-4" /><rect
     style="fill:none;stroke:#000000;stroke-width:1.32292;stroke-linecap:round;stroke-linejoin:round;stroke-dasharray:none;stroke-opacity:1"
     id="rect72"
     width="6.0644712"
     height="6.0644717"
     x="78.143135"
     y="44.775768"
     transform="rotate(45)" /><circle
     style="fill:none;stroke:#000000;stroke-width:1.32292;stroke-linecap:round;stroke-linejoin:round;stroke-dasharray:none;stroke-opacity:1"
     id="path73"
     cx="23.618832"
     cy="91.222771"
     r="1.6558894" /><path
     style="fill:none;stroke:#000000;stroke-width:1.32292;stroke-linecap:butt;stroke-linejoin:miter;stroke-dasharray:none;stroke-opacity:1"
     d="m 22.360544,83.443486 1.255264,-1.333065 1.302648,1.114469 -1.260013,1.458633 z"
     id="path87" /></g></svg>
