<?xml version="1.0" encoding="UTF-8" standalone="no"?>
<!-- Created with Inkscape (http://www.inkscape.org/) -->

<svg
   width="18.325249mm"
   height="36.694237mm"
   viewBox="0 0 18.325249 36.694237"
   version="1.1"
   id="svg1"
   xml:space="preserve"
   xmlns="http://www.w3.org/2000/svg"
   xmlns:svg="http://www.w3.org/2000/svg"><defs
   id="defs1" />&#10;       <g
   id="layer1"
   transform="translate(-12.646228,-9.2240857)"><path
     style="fill:none;stroke:#000000;stroke-width:1.32292;stroke-linecap:butt;stroke-linejoin:miter;stroke-dasharray:none;stroke-opacity:1"
     d="m 17.804174,19.240121 c 0.14356,-2.50439 -0.99091,-3.544444 -3.77125,-4.391294 0.44924,2.624744 1.93947,4.207005 3.77125,4.391294 z"
     id="path8-0-5" /><path
     style="fill:none;stroke:#000000;stroke-width:1.32292;stroke-linecap:butt;stroke-linejoin:miter;stroke-dasharray:none;stroke-opacity:1"
     d="m 17.826541,23.958721 c 0.16504,-2.638095 -1.13905,-3.733704 -4.33508,-4.625767 0.51643,2.764897 2.22944,4.431649 4.33508,4.625767 z"
     id="path8-0-2-4" /><path
     style="fill:none;stroke:#000000;stroke-width:1.32292;stroke-linecap:butt;stroke-linejoin:miter;stroke-dasharray:none;stroke-opacity:1"
     d="m 18.491209,30.219223 c 0.15664,-2.724331 -1.08094,-3.85574 -4.11387,-4.77697 0.49005,2.855284 2.11569,4.576501 4.11387,4.77697 z"
     id="path8-0-3-7" /><path
     style="fill:none;stroke:#000000;stroke-width:1.32292;stroke-linecap:butt;stroke-linejoin:miter;stroke-dasharray:none;stroke-opacity:1"
     d="m 19.358249,36.198423 c 0.17521,-2.918302 -1.20909,-4.130267 -4.60159,-5.117081 0.54815,3.058561 2.36649,4.902334 4.60159,5.117081 z"
     id="path8-0-3-3-6" /><path
     style="fill:none;stroke:#000000;stroke-width:1.32292;stroke-linecap:butt;stroke-linejoin:miter;stroke-dasharray:none;stroke-opacity:1"
     d="m 21.321379,41.641212 c -0.61366,-3.365485 -2.13575,-4.471677 -5.34528,-4.919202 1.27959,3.380852 3.34502,5.121249 5.34528,4.919202 z"
     id="path8-0-3-8-5" /><path
     style="fill:none;stroke:#000000;stroke-width:1.32292;stroke-linecap:butt;stroke-linejoin:miter;stroke-dasharray:none;stroke-opacity:1"
     d="m 20.555069,25.036073 c -0.15819,-2.664088 1.09176,-3.770475 4.1551,-4.671327 -0.49498,2.792131 -2.13689,4.475286 -4.1551,4.671327 z"
     id="path8-0" /><path
     style="fill:none;stroke:#000000;stroke-width:1.32292;stroke-linecap:butt;stroke-linejoin:miter;stroke-dasharray:none;stroke-opacity:1"
     d="m 21.064919,29.578962 c -0.18183,-2.806334 1.25498,-3.971796 4.7763,-4.920747 -0.56899,2.941213 -2.45637,4.714238 -4.7763,4.920747 z"
     id="path8-0-2" /><path
     style="fill:none;stroke:#000000;stroke-width:1.32292;stroke-linecap:butt;stroke-linejoin:miter;stroke-dasharray:none;stroke-opacity:1"
     d="m 21.780989,34.429032 c -0.17258,-2.89806 1.19095,-4.101615 4.53257,-5.081584 -0.53993,3.037348 -2.33101,4.868326 -4.53257,5.081584 z"
     id="path8-0-3" /><path
     style="fill:none;stroke:#000000;stroke-width:1.32292;stroke-linecap:butt;stroke-linejoin:miter;stroke-dasharray:none;stroke-opacity:1"
     d="m 23.976409,38.575977 c -0.19304,-3.104399 1.33214,-4.393646 5.06993,-5.443388 -0.60394,3.253604 -2.60736,5.214946 -5.06993,5.443388 z"
     id="path8-0-3-3" /><path
     style="fill:none;stroke:#000000;stroke-width:1.32292;stroke-linecap:butt;stroke-linejoin:miter;stroke-dasharray:none;stroke-opacity:1"
     d="m 21.040609,20.556918 c -0.81496,-2.541301 0.12103,-3.923491 2.86463,-5.556981 0.21438,2.82754 -0.95837,4.865802 -2.86463,5.556981 z"
     id="path8-8" /><path
     style="fill:none;stroke:#000000;stroke-width:1.32292;stroke-linecap:butt;stroke-linejoin:miter;stroke-dasharray:none;stroke-opacity:1"
     d="m 19.786639,16.502453 c -1.36966,-2.29051 -0.77128,-3.848841 1.53074,-6.061611 0.84927,2.70552 0.1693,4.956401 -1.53074,6.061611 z"
     id="path8-2" /><path
     style="fill:none;stroke:#000000;stroke-width:1.32292;stroke-linecap:round;stroke-linejoin:miter;stroke-dasharray:none;stroke-opacity:1"
     d="M 30.310019,45.256863 C 21.241349,43.601587 19.260939,33.67912 19.247179,18.206189"
     id="path8" /></g></svg>
