<?xml version="1.0" encoding="UTF-8" standalone="no"?>
<!-- Created with Inkscape (http://www.inkscape.org/) -->

<svg
   width="30.891052mm"
   height="35.648262mm"
   viewBox="0 0 30.891052 35.648262"
   version="1.1"
   id="svg1"
   xml:space="preserve"
   xmlns="http://www.w3.org/2000/svg"
   xmlns:svg="http://www.w3.org/2000/svg"><defs
   id="defs1" />&#10;       <g
   id="layer8"
   transform="translate(-218.89005,-75.343938)"><path
     id="path3"
     style="fill:none;stroke:#000000;stroke-width:1.32292;stroke-linecap:butt;stroke-linejoin:miter;stroke-dasharray:none;stroke-opacity:1"
     d="m 234.33378,76.005396 c -1.82576,-1.19e-4 -3.30595,1.239409 -3.30611,2.768572 0.002,1.203221 0.93177,2.267575 2.3003,2.633564 v 4.476237 h -7.07675 v 2.626252 h 6.89322 v 13.186949 l -1.6664,2.78772 c 0,0 -1.78391,-0.88864 -3.79131,-1.80812 -2.35171,-1.07718 -4.12908,-2.24759 -4.12908,-2.24759 l -1.21516,-2.870939 -2.47849,3.289509 7.39713,4.36334 7.12916,4.9684 8.08464,-5.92174 3.46185,-2.6077 2.91615,-1.938869 -2.26538,-3.26385 -0.9938,2.48279 c 0,0 -2.27119,1.711459 -4.47369,2.866189 -1.97063,1.03314 -4.01228,2.42713 -4.01228,2.42713 l -1.36325,-2.49666 -0.0809,-13.126251 h 1.2303 5.51806 v -2.684632 h -6.83277 V 81.33273 c 1.24341,-0.423443 2.0577,-1.434551 2.06067,-2.558762 -1.6e-4,-1.529167 -1.48036,-2.768697 -3.30612,-2.768572 z" /></g></svg>
