<?xml version="1.0" encoding="UTF-8" standalone="no"?>
<!-- Created with Inkscape (http://www.inkscape.org/) -->

<svg
   width="29.482073mm"
   height="30.871468mm"
   viewBox="0 0 29.482073 30.871468"
   version="1.1"
   id="svg1"
   xml:space="preserve"
   xmlns="http://www.w3.org/2000/svg"
   xmlns:svg="http://www.w3.org/2000/svg"><defs
   id="defs1" />&#10;       <g
   id="layer9"
   transform="translate(-14.357458,-154.19261)"><path
     style="fill:none;stroke:#000000;stroke-width:1.32292;stroke-linecap:butt;stroke-linejoin:miter;stroke-dasharray:none;stroke-opacity:1"
     d="m 42.380819,171.74527 0.0183,-7.77863 c -1.10985,-5.36447 -4.02421,-8.64371 -9.37057,-9.11257 h -6.24588 c -5.6445,1.25414 -8.72165,4.49096 -8.91036,9.95838 l -0.94129,1.43314 13.08994,0.0151 1.98301,4.4742 c 0.40022,0.53657 0.86436,1.00876 1.70615,1.10105 z"
     id="path1" /><path
     style="fill:none;stroke:#000000;stroke-width:1.32292;stroke-linecap:butt;stroke-linejoin:miter;stroke-dasharray:none;stroke-opacity:1"
     d="m 15.920169,168.34596 c 0.17172,-0.032 13.1176,-0.0496 13.1176,-0.0496 l 1.77251,3.94985 c 0.73454,1.48657 1.594,1.47181 2.44495,1.55908 l 8.99365,0.006 c 0.69246,0.12799 0.87361,0.55309 0.92563,1.05321 -0.0568,0.54674 -0.40846,0.78184 -0.83047,0.94219 l -9.02054,0.0638 c -1.39472,0.10116 -2.88803,-0.76153 -4.48373,-2.62596 l -1.29453,-2.93076 -11.69426,-0.0206 c -0.5658,-0.0652 -0.79746,-0.40791 -0.83139,-0.91482 0.0183,-0.60199 0.32421,-0.9419 0.90058,-1.0327 z"
     id="path2" /><path
     style="fill:none;stroke:#000000;stroke-width:1.32292;stroke-linecap:butt;stroke-linejoin:miter;stroke-dasharray:none;stroke-opacity:1"
     d="m 23.305279,171.9704 h 3.08131 v 7.79311 l 2.84119,-3.348 1.81381,1.39587 -4.655,5.24762 v 1.34362 h -3.08131 z"
     id="path7" /></g></svg>
