<?xml version="1.0" encoding="UTF-8" standalone="no"?>
<!-- Created with Inkscape (http://www.inkscape.org/) -->

<svg
   width="31.019316mm"
   height="28.425083mm"
   viewBox="0 0 31.019315 28.425084"
   version="1.1"
   id="svg1"
   xml:space="preserve"
   xmlns="http://www.w3.org/2000/svg"
   xmlns:svg="http://www.w3.org/2000/svg"><defs
   id="defs1" />&#10;       <g
   id="layer3"
   transform="translate(-114.79964,-14.795647)"><path
     style="fill:none;stroke:#000000;stroke-width:1.32292;stroke-linecap:butt;stroke-linejoin:miter;stroke-dasharray:none;stroke-opacity:1"
     d="m 130.77919,18.403808 -2.43715,5.000197 1.30458,3.568753 5.48606,2.244833 -1.34323,-9.893879 z"
     id="path30" /><path
     style="fill:none;stroke:#000000;stroke-width:1.32292;stroke-linecap:butt;stroke-linejoin:miter;stroke-dasharray:none;stroke-opacity:1"
     d="m 129.70675,15.78657 -3.53381,6.844827 -6.39673,1.268342 4.18714,-6.697178 z"
     id="path31" /><path
     style="fill:none;stroke:#000000;stroke-width:1.32292;stroke-linecap:butt;stroke-linejoin:miter;stroke-dasharray:none;stroke-opacity:1"
     d="m 126.45719,24.46016 1.40477,3.07605 -5.78954,2.866768 -2.68912,-4.496754 z"
     id="path32" /><path
     style="fill:none;stroke:#000000;stroke-width:1.32292;stroke-linecap:butt;stroke-linejoin:miter;stroke-dasharray:none;stroke-opacity:1"
     d="m 124.22804,31.509585 7.26765,3.040081 3.14682,-3.19686 -5.42497,-2.369305 z"
     id="path33" /><path
     style="fill:none;stroke:#000000;stroke-width:1.32292;stroke-linecap:butt;stroke-linejoin:miter;stroke-dasharray:none;stroke-opacity:1"
     d="m 136.6795,32.057291 -2.22869,2.408029 4.5243,-1.25521 z"
     id="path34" /><path
     style="fill:none;stroke:#000000;stroke-width:1.32292;stroke-linecap:butt;stroke-linejoin:miter;stroke-dasharray:none;stroke-opacity:1"
     d="m 122.487,36.695883 4.89023,0.572376 -0.9015,-2.935217 z"
     id="path35" /><path
     style="fill:none;stroke:#000000;stroke-width:1.32292;stroke-linecap:butt;stroke-linejoin:miter;stroke-dasharray:none;stroke-opacity:1"
     d="m 117.28936,33.56135 6.94928,0.09738 -3.92553,2.126992 z"
     id="path37" /><path
     style="fill:none;stroke:#000000;stroke-width:1.32292;stroke-linecap:butt;stroke-linejoin:miter;stroke-dasharray:none;stroke-opacity:1"
     d="m 115.62228,34.607518 3.42428,2.563846 -2.82077,2.971114 z"
     id="path38" /><path
     style="fill:none;stroke:#000000;stroke-width:1.32292;stroke-linecap:butt;stroke-linejoin:miter;stroke-dasharray:none;stroke-opacity:1"
     d="m 117.98891,41.059951 5.40922,-0.481223 2.61281,-1.62973 -5.45109,-0.581778 z"
     id="path40" /><path
     style="fill:none;stroke:#000000;stroke-width:1.32292;stroke-linecap:butt;stroke-linejoin:miter;stroke-dasharray:none;stroke-opacity:1"
     d="m 136.7969,38.972371 4.2481,0.887033 0.58062,1.267491 -2.89555,1.251255 z"
     id="path41" /><path
     style="fill:none;stroke:#000000;stroke-width:1.32292;stroke-linecap:butt;stroke-linejoin:miter;stroke-dasharray:none;stroke-opacity:1"
     d="m 143.15356,39.610318 1.14659,-1.857115 -0.57547,-2.013427 -2.42142,-0.6604 z"
     id="path43" /><path
     style="fill:none;stroke:#000000;stroke-width:1.32292;stroke-linecap:butt;stroke-linejoin:miter;stroke-dasharray:none;stroke-opacity:1"
     d="m 136.96343,37.19322 3.48113,0.752126 -0.94072,-2.7524 z"
     id="path44" /><path
     style="fill:none;stroke:#000000;stroke-width:1.32292;stroke-linecap:butt;stroke-linejoin:miter;stroke-dasharray:none;stroke-opacity:1"
     d="m 137.29267,30.099999 3.83431,2.049956 3.02378,-3.377231 -6.91263,0.849999 z"
     id="path46" /><path
     style="fill:none;stroke:#000000;stroke-width:1.32292;stroke-linecap:butt;stroke-linejoin:miter;stroke-dasharray:none;stroke-opacity:1"
     d="m 135.68379,19.055468 1.29384,8.62085 7.6073,-0.995624 -5.18382,-9.245282 z"
     id="path47" /><path
     style="fill:none;stroke:#000000;stroke-width:1.32292;stroke-linecap:butt;stroke-linejoin:miter;stroke-dasharray:none;stroke-opacity:1"
     d="m 131.51743,16.668002 3.05906,0.915595 2.58329,-1.184178 -5.00453,-0.865625 z"
     id="path48" /></g></svg>
