<?xml version="1.0" encoding="UTF-8" standalone="no"?>
<!-- Created with Inkscape (http://www.inkscape.org/) -->

<svg
   width="38.734516mm"
   height="33.162926mm"
   viewBox="0 0 38.734516 33.162926"
   version="1.1"
   id="svg1"
   xml:space="preserve"
   xmlns="http://www.w3.org/2000/svg"
   xmlns:svg="http://www.w3.org/2000/svg"><defs
   id="defs1" />&#10;       <g
   id="layer5"
   transform="translate(-56.763243,-76.580446)"><path
     style="fill:none;stroke:#000000;stroke-width:1.32292;stroke-linecap:butt;stroke-linejoin:miter;stroke-dasharray:none;stroke-opacity:1"
     d="m 82.02545,109.07959 5.106152,-0.0179 0.125907,-5.51637 7.108716,-0.12554 -4.191994,-7.295416 2.530032,-0.703059 -5.434329,-6.721292 2.226147,-0.56218 -5.000647,-8.92716 -4.956569,9.028453 2.114535,0.498713 -5.132051,6.641583 2.12208,0.489575 -3.844398,8.161563 7.223681,-0.24964 z"
     id="path49" /><path
     style="fill:none;stroke:#000000;stroke-width:1.32292;stroke-dasharray:none"
     d="m 75.919668,86.473989 1.209526,0.311834 1.205353,0.753771 v 0.314466 l -1.205353,0.753771 -1.209526,0.311834 -0.144052,0.724205 0.998121,0.750953 0.825134,1.157678 -0.120325,0.290518 -1.402066,0.235132 -1.236771,-0.174779 -0.410222,0.61397 0.634732,1.075717 0.319315,1.385341 -0.222337,0.222337 -1.385341,-0.319315 -1.075717,-0.634732 -0.61397,0.410222 0.174779,1.236771 -0.235132,1.402066 -0.290518,0.120325 -1.157678,-0.825134 -0.750953,-0.998121 -0.724205,0.144052 -0.311834,1.209526 -0.753771,1.205353 H 67.722391 L 66.96862,96.946397 66.656786,95.736871 65.932581,95.592819 65.181628,96.59094 64.02395,97.416074 63.733432,97.295749 63.4983,95.893683 l 0.174779,-1.236771 -0.61397,-0.410222 -1.075717,0.634732 -1.385341,0.319315 -0.222337,-0.222337 0.319315,-1.385341 0.634732,-1.075717 -0.410222,-0.61397 -1.236771,0.174779 -1.402066,-0.235132 -0.120325,-0.290518 0.825134,-1.157678 0.998121,-0.750953 -0.144052,-0.724205 -1.209526,-0.311834 -1.205353,-0.753771 v -0.314466 l 1.205353,-0.753771 1.209526,-0.311834 0.144052,-0.724205 -0.998121,-0.750953 -0.825134,-1.157678 0.120325,-0.290518 1.402066,-0.235132 1.236771,0.174779 0.410222,-0.61397 -0.634732,-1.075717 -0.319315,-1.385341 0.222337,-0.222337 1.385341,0.319315 1.075717,0.634732 0.61397,-0.410222 -0.174779,-1.236771 0.235132,-1.402066 0.290518,-0.120325 1.157678,0.825134 0.750953,0.998121 0.724205,-0.144052 0.311834,-1.209526 0.753771,-1.205353 h 0.314466 l 0.753771,1.205353 0.311834,1.209526 0.724205,0.144052 0.750953,-0.998121 1.157678,-0.825134 0.290518,0.120325 0.235132,1.402066 -0.174779,1.236771 0.61397,0.410222 1.075717,-0.634732 1.385341,-0.319315 0.222337,0.222337 -0.319315,1.385341 -0.634732,1.075717 0.410222,0.61397 1.236771,-0.174779 1.402066,0.235132 0.120325,0.290518 -0.825134,1.157678 -0.998121,0.750953 z"
     id="path62" /><circle
     style="fill:none;stroke:#000000;stroke-width:1.32292;stroke-dasharray:none"
     id="path63"
     cx="67.879623"
     cy="87.696831"
     r="2.0986741" /></g></svg>
