<?xml version="1.0" encoding="UTF-8" standalone="no"?>
<!-- Created with Inkscape (http://www.inkscape.org/) -->

<svg
   width="27.515579mm"
   height="34.546875mm"
   viewBox="0 0 27.515579 34.546875"
   version="1.1"
   id="svg1"
   xml:space="preserve"
   xmlns="http://www.w3.org/2000/svg"
   xmlns:svg="http://www.w3.org/2000/svg"><defs
   id="defs1" />&#10;       <g
   id="layer12"
   transform="translate(-171.78048,-152.28188)"><path
     style="fill:none;stroke:#000000;stroke-width:1.32292;stroke-linecap:butt;stroke-linejoin:miter;stroke-dasharray:none;stroke-opacity:1"
     d="m 194.62979,185.57105 3.50771,-7.86697 c 0,0 -2.53837,0.63967 -3.99487,1.03929 -2.89924,0.79548 -8.68787,0.55927 -8.68787,0.55927 l 0.0623,-3.87777 11.05752,-1.2689 c 0,0 -2.95315,-7.75264 -5.17168,-11.4179 -1.99411,-3.2945 -6.88002,-9.0652 -6.88002,-9.0652 0,0 -3.20754,11.93196 -6.05717,17.35688 -1.07734,2.05097 -4.10349,5.60944 -4.10349,5.60944 l 8.86012,-0.94668 0.0316,3.94693 -10.55644,0.65422 1.094,3.08143 0.7547,1.75594 c 0,0 1.47835,-0.99212 2.2792,-0.77333 0.80085,0.21879 1.64012,1.47299 2.8139,1.51868 1.17378,0.0457 2.18184,-1.5873 3.52036,-1.55986 1.33852,0.0274 2.33536,1.80059 3.75116,1.84959 1.4158,0.049 2.49105,-1.56571 3.99511,-1.63708 1.15593,-0.0549 3.72386,1.04202 3.72386,1.04202 z"
     id="path4-6" /></g></svg>
